<?xml version="1.0" standalone="no"?><svg xmlns="http://www.w3.org/2000/svg" viewBox="0 0 1440 320"><path fill="#7b1e24" fill-opacity="1" d="M0,160L20,176C40,192,80,224,120,229.3C160,235,200,213,240,181.3C280,149,320,107,360,117.3C400,128,440,192,480,213.3C520,235,560,213,600,186.7C640,160,680,128,720,138.7C760,149,800,203,840,202.7C880,203,920,149,960,144C1000,139,1040,181,1080,202.7C1120,224,1160,224,1200,197.3C1240,171,1280,117,1320,96C1360,75,1400,85,1420,90.7L1440,96L1440,0L1420,0C1400,0,1360,0,1320,0C1280,0,1240,0,1200,0C1160,0,1120,0,1080,0C1040,0,1000,0,960,0C920,0,880,0,840,0C800,0,760,0,720,0C680,0,640,0,600,0C560,0,520,0,480,0C440,0,400,0,360,0C320,0,280,0,240,0C200,0,160,0,120,0C80,0,40,0,20,0L0,0Z"></path></svg>